<svg version="1.1" xmlns="http://www.w3.org/2000/svg"
     viewBox="280 300 360 400"
     xml:space="preserve">

<path fill="#2A4CD0" opacity="1.000000" stroke="none" 
	d="
M495.022644,575.024841 
	C495.325012,573.587952 495.627380,572.151062 496.214996,570.239258 
	C496.725861,569.562256 496.896942,569.321411 497.303741,568.737732 
	C497.711945,555.849609 497.841492,543.265686 497.910004,530.681396 
	C497.913147,530.106079 497.366516,529.527771 497.053009,528.506714 
	C497.529724,522.066895 495.681000,516.716919 492.829132,511.527405 
	C488.693817,504.002289 483.747681,496.704620 481.004242,488.675446 
	C474.007050,468.197205 486.788391,444.984039 507.086670,440.007721 
	C523.955933,435.872070 537.406799,442.283875 547.452209,455.265503 
	C555.880737,466.157745 556.032593,478.953949 551.598206,491.749420 
	C550.113770,496.032867 548.207947,500.170227 546.494690,504.374359 
	C546.494690,504.374359 546.420532,504.103302 546.062622,504.227600 
	C539.503540,511.439484 537.232971,520.099731 537.107178,529.098572 
	C536.781128,552.411255 537.015076,575.731628 536.968140,599.048767 
	C536.963867,601.181580 536.865417,603.408203 536.263611,605.428345 
	C534.384949,611.734741 532.243652,617.962830 530.204102,624.221313 
	C530.204102,624.221313 530.129395,624.129211 529.909058,624.219971 
	C529.564392,624.656494 529.440063,625.002258 529.315674,625.347961 
	C529.315674,625.347961 529.293762,625.197876 528.987915,625.258301 
	C527.903870,625.929260 527.067932,626.479370 526.356323,627.159485 
	C518.781006,634.399231 510.135651,639.134399 499.318665,639.026184 
	C490.520386,638.938110 481.720917,638.964478 472.979553,638.595581 
	C481.725281,626.694519 490.593964,615.247986 494.108551,600.772400 
	C496.179596,592.242432 497.081940,583.691528 495.022644,575.024841 
z"/>
<path fill="#2B4ECF" opacity="1.000000" stroke="none" 
	d="
M367.930237,596.331909 
	C374.384735,596.571533 380.839264,596.811157 388.004059,597.381226 
	C399.483154,597.829651 410.251953,597.947632 421.014038,598.461914 
	C423.744934,606.125488 422.523041,613.520203 420.760498,620.583740 
	C417.843750,632.272766 419.267761,643.482361 423.104950,654.506531 
	C424.713257,659.127197 426.549988,663.243591 432.801117,664.955505 
	C437.300903,666.187805 440.294037,663.800476 444.084625,664.367004 
	C444.270966,664.932983 444.374695,665.149048 444.478394,665.365112 
	C444.478394,665.365112 444.390900,665.369263 444.075439,665.339478 
	C443.527191,665.592468 443.294373,665.875244 443.061523,666.158081 
	C434.878601,674.639771 426.930817,683.366455 418.434235,691.521362 
	C412.248169,697.458679 404.479523,698.248596 396.635712,695.162537 
	C389.245972,692.255066 384.576233,686.430420 383.945526,678.615479 
	C383.144043,668.684570 383.456543,658.663452 383.302856,648.680969 
	C383.270081,646.550964 383.298096,644.420044 383.298096,642.115295 
	C376.536652,641.416443 370.088318,641.053772 363.742767,640.044800 
	C322.692688,633.517456 292.108582,601.369873 287.828308,560.114624 
	C287.024139,552.363403 287.182617,544.512390 287.003235,536.112305 
	C287.109558,535.517273 287.059784,535.277893 287.059753,535.277893 
	C287.040253,534.372925 287.020752,533.467896 287.096680,531.687744 
	C287.460022,527.211304 287.727936,523.609985 287.988129,520.475464 
	C287.979187,524.436035 287.854645,527.934875 288.000336,531.422546 
	C288.407135,541.161072 290.499329,550.538513 295.594666,558.910645 
	C306.113068,576.193542 320.724792,588.572998 340.695679,593.186462 
	C349.543884,595.230530 358.838348,595.342773 367.930237,596.331909 
z"/>
<path fill="#6764DC" opacity="1.000000" stroke="none" 
	d="
M632.802612,467.027161 
	C632.571655,473.796295 632.184143,480.564941 632.161804,487.334778 
	C632.145447,492.291443 632.866821,497.252502 632.812866,502.206757 
	C632.604614,521.336914 633.249573,540.549866 631.687561,559.576843 
	C628.116333,603.080261 593.155273,639.157898 547.535278,640.173096 
	C545.781250,640.212158 544.025696,640.178101 541.917664,640.178101 
	C544.591980,636.345276 547.024048,632.859680 549.947632,629.052612 
	C550.616516,628.448364 550.793762,628.165588 550.971008,627.882812 
	C550.971008,627.882812 550.977051,627.991577 551.227844,627.789612 
	C551.968140,626.204346 552.457642,624.821106 552.947144,623.437805 
	C552.947144,623.437805 552.800537,623.252380 553.117554,622.963806 
	C553.606262,622.088684 553.777893,621.502136 553.949524,620.915588 
	C553.949524,620.915588 553.971558,620.987427 554.236206,620.781128 
	C555.651062,615.162170 557.589233,609.769287 557.725830,604.331177 
	C557.857971,599.073608 558.750000,595.442322 564.195801,593.795105 
	C565.617188,593.365173 566.718201,591.875977 567.966370,590.873291 
	C567.966370,590.873291 567.936584,590.955811 568.239014,590.929321 
	C569.350098,590.222168 570.158752,589.541504 570.967407,588.860779 
	C570.967407,588.860779 571.001099,588.954895 571.181885,588.845398 
	C571.569641,588.462463 571.776672,588.189026 571.983704,587.915588 
	C571.983704,587.915588 571.990723,587.987671 572.173157,587.865417 
	C572.633789,587.545044 572.844666,587.291016 572.988281,586.981140 
	C572.988281,586.981140 573.000000,587.000000 573.299866,586.940063 
	C574.068665,586.282654 574.537598,585.685181 575.006531,585.087646 
	C575.006531,585.087646 575.005371,585.006287 575.339233,584.957336 
	C576.098938,584.546387 576.524841,584.184387 576.950684,583.822388 
	C576.950684,583.822388 576.982849,583.937561 577.171143,583.837769 
	C577.555481,583.443726 577.751404,583.149536 577.947388,582.855408 
	C577.947388,582.855408 577.932922,582.970215 578.199341,582.841064 
	C578.954407,581.766785 579.443054,580.821594 579.931763,579.876404 
	C579.931763,579.876404 579.967102,579.956421 580.234070,579.833008 
	C580.967163,578.760498 581.433350,577.811401 581.899475,576.862366 
	C581.899475,576.862366 581.951233,576.928772 582.235229,576.812500 
	C589.576538,567.296936 591.581787,556.380798 592.474915,545.000122 
	C597.563110,545.981018 602.259155,546.781311 606.850830,547.981140 
	C614.352600,549.941406 621.786377,552.161987 630.988953,554.765015 
	C630.988953,540.153625 630.988953,527.103943 631.007446,513.580261 
	C631.022217,501.418762 631.018433,489.731262 631.036987,477.583496 
	C631.055664,473.750916 631.052002,470.378601 631.340454,467.003113 
	C632.022583,467.009003 632.412598,467.018097 632.802612,467.027161 
z"/>

<path fill="#2D7FF4" opacity="1.000000" stroke="none" 
	d="
M342.106506,421.163422 
	C333.064697,433.015228 328.932098,446.436646 328.826599,461.955231 
	C327.821136,478.238525 327.266235,493.856232 326.669891,510.639496 
	C322.449341,506.746796 319.316467,508.954041 315.587616,509.860382 
	C309.170074,511.420227 302.260315,511.853210 295.672668,511.323212 
	C293.395447,511.139954 290.884521,509.247314 288.032715,509.733765 
	C287.986725,509.313232 287.971680,509.144623 287.967407,508.738159 
	C287.978180,508.500305 287.956573,508.024658 287.972473,507.554688 
	C287.995361,488.122284 287.649567,469.149719 288.191284,450.202576 
	C288.394287,443.103333 290.662292,436.063141 292.197937,429.257965 
	C294.162109,428.624451 296.260864,428.082886 297.611633,426.771118 
	C302.931915,421.604370 310.783142,423.910980 316.519104,420.116974 
	C316.791779,419.936584 317.447662,420.437744 317.932770,420.460938 
	C324.611633,420.779755 330.443665,423.146027 334.597839,427.312836 
	C337.334076,425.071899 339.720306,423.117676 342.106506,421.163422 
z"/>
<path fill="#3578F5" opacity="1.000000" stroke="none" 
	d="
M288.063660,509.985748 
	C290.884521,509.247314 293.395447,511.139954 295.672668,511.323212 
	C302.260315,511.853210 309.170074,511.420227 315.587616,509.860382 
	C319.316467,508.954041 322.449341,506.746796 326.669891,510.639496 
	C327.266235,493.856232 327.821136,478.238525 328.664124,462.324280 
	C329.029266,488.680267 329.145355,515.332703 329.167389,541.985291 
	C329.178802,555.800354 333.032135,568.234985 341.882019,578.991028 
	C348.685181,587.259460 357.676300,592.096863 367.765839,595.909790 
	C358.838348,595.342773 349.543884,595.230530 340.695679,593.186462 
	C320.724792,588.572998 306.113068,576.193542 295.594666,558.910645 
	C290.499329,550.538513 288.407135,541.161072 288.000336,531.422546 
	C287.854645,527.934875 287.979187,524.436035 287.990662,520.020142 
	C288.021851,516.060608 288.042755,513.023193 288.063660,509.985748 
z"/>
<path fill="#376BDD" opacity="1.000000" stroke="none" 
	d="
M382.338135,474.159149 
	C382.279572,473.325012 382.221008,472.490845 382.469574,470.916138 
	C382.867065,458.756561 382.957458,447.337524 383.336365,435.630859 
	C383.742828,424.234375 383.860840,413.125549 383.987152,402.007355 
	C383.995453,401.997986 384.003662,401.974365 384.373901,401.939178 
	C387.021057,400.958252 389.234772,399.436615 391.587189,399.178375 
	C397.831909,398.492737 404.146057,398.467621 410.413269,397.947113 
	C413.591125,397.683228 415.692688,398.813538 416.343750,401.834351 
	C417.168701,405.662231 419.624969,406.408813 422.972229,406.467102 
	C422.986908,429.616058 422.988495,452.296417 422.620941,474.987091 
	C419.546173,476.078125 417.147003,476.479523 414.044403,475.220490 
	C411.223755,474.075897 407.564667,474.335876 404.405212,474.821960 
	C397.231873,475.925507 390.138458,477.548859 382.996765,478.599609 
	C382.766724,476.878571 382.552429,475.518860 382.338135,474.159149 
z"/>
<path fill="#3489EC" opacity="1.000000" stroke="none" 
	d="
M383.012543,478.960876 
	C390.138458,477.548859 397.231873,475.925507 404.405212,474.821960 
	C407.564667,474.335876 411.223755,474.075897 414.044403,475.220490 
	C417.147003,476.479523 419.546173,476.078125 422.630096,475.386902 
	C423.566132,477.512482 424.123871,479.248566 424.681641,480.984650 
	C426.599762,486.082550 427.864929,491.558899 430.559113,496.206970 
	C438.463287,509.843384 450.799530,515.693604 466.431946,515.288147 
	C474.666534,515.074524 476.657288,517.015259 476.903778,525.284241 
	C477.191284,534.928650 477.050232,544.585205 477.252655,554.233215 
	C477.328522,557.848389 476.031403,559.129639 472.293579,559.051575 
	C461.481323,558.825867 450.626221,558.450073 439.855835,559.161316 
	C432.164795,559.669006 424.297180,560.985901 417.012146,563.438293 
	C401.680542,568.599365 385.759613,565.571838 375.163635,554.331665 
	C363.764099,542.239075 360.722198,525.605164 367.464386,510.923523 
	C369.038269,507.496246 371.546753,504.507782 373.251984,501.129089 
	C376.084290,495.517273 378.614410,489.752960 381.694763,484.056885 
	C382.396179,482.702637 382.674713,481.344330 382.965637,479.729614 
	C382.989502,479.302429 383.001007,479.131653 383.012543,478.960876 
M439.943665,517.825378 
	C432.458313,516.990356 424.986725,515.975464 417.481445,515.401001 
	C414.053406,515.138672 410.553925,515.982056 407.095520,515.909668 
	C398.811218,515.736389 390.532745,515.296753 382.250397,515.008606 
	C379.187500,514.901978 375.865814,515.655945 373.114258,514.706787 
	C368.892883,513.250549 367.762299,515.048401 367.066620,518.490967 
	C365.177551,527.838806 365.866821,536.554932 370.762390,545.221558 
	C379.167908,560.101868 398.641907,568.402771 415.666992,561.955017 
	C423.104584,559.138306 431.343719,557.815063 439.324677,557.210510 
	C449.752899,556.420654 460.286072,557.000793 470.774017,557.026917 
	C473.068329,557.032593 475.085205,557.095276 475.048462,553.793579 
	C474.935455,543.639771 475.158966,533.479919 474.906769,523.330994 
	C474.802368,519.130249 472.460754,516.819153 467.767792,516.905945 
	C463.155762,516.991333 458.533905,516.210754 453.909393,516.099487 
	C451.645294,516.044861 449.362488,516.626587 447.093536,516.957153 
	C444.989502,517.263733 442.892609,517.619507 439.943665,517.825378 
M435.272400,506.352020 
	C435.376892,507.906586 435.384033,509.481354 435.697754,510.992493 
	C435.741486,511.203186 437.293518,511.100739 438.147339,511.143219 
	C437.653259,509.828766 437.184052,508.503906 436.644348,507.208466 
	C436.534821,506.945587 436.159454,506.793488 435.272400,506.352020 
z"/>
<path fill="#4558DC" opacity="1.000000" stroke="none" 
	d="
M421.020752,598.065674 
	C410.251953,597.947632 399.483154,597.829651 388.404053,597.453857 
	C413.021606,597.106873 437.949524,597.033142 462.877289,596.922791 
	C478.178741,596.855042 488.648560,589.546631 494.823456,575.302490 
	C497.081940,583.691528 496.179596,592.242432 494.108551,600.772400 
	C490.593964,615.247986 481.725281,626.694519 472.615662,638.613525 
	C470.836029,640.044067 469.477844,641.112183 468.119690,642.180298 
	C468.119690,642.180298 468.100494,642.076233 467.786987,642.092529 
	C464.987244,644.082458 462.501038,646.056091 459.706360,647.870972 
	C456.639557,643.424927 453.098206,640.305786 448.540070,637.658691 
	C443.357361,634.648865 440.081818,629.901855 443.678833,623.021667 
	C445.010437,620.474609 444.637054,617.036194 444.987488,614.407654 
	C446.630371,611.956787 448.604340,609.771179 449.661072,607.207520 
	C450.590424,604.953003 449.805603,603.141785 446.546875,603.174377 
	C444.636200,603.193604 442.246063,602.575867 440.891693,601.343384 
	C437.809723,598.538818 434.454376,597.677002 430.463196,597.965759 
	C427.329712,598.192444 424.169250,598.046204 421.020752,598.065674 
z"/>


<path fill="#4B4CC9" opacity="1.000000" stroke="none" 
	d="
M592.035889,544.999023 
	C591.581787,556.380798 589.576538,567.296936 582.196899,576.829834 
	C586.999084,567.134216 590.426086,556.808777 590.572327,545.624512 
	C590.687622,536.804993 590.531738,527.982178 590.526733,519.160828 
	C590.515808,500.017456 590.515503,480.874115 590.527771,461.730743 
	C590.537476,446.614014 586.532288,432.985107 576.133301,421.560333 
	C569.193298,413.935730 560.739319,409.115448 550.496155,406.608704 
	C550.458069,406.098633 550.688599,405.946716 551.286377,405.901062 
	C552.400879,405.696899 553.186279,405.444458 554.383789,405.159607 
	C557.534180,405.442841 560.272461,405.758514 563.150879,406.286804 
	C563.848511,406.386963 564.406128,406.274475 565.352173,406.132263 
	C567.503662,406.407227 569.266724,406.711914 571.247559,407.029388 
	C571.465393,407.042175 571.901672,407.051880 572.283203,407.050049 
	C573.421692,407.131409 574.178589,407.214630 575.025635,407.615540 
	C577.745117,409.244659 580.252869,410.950928 583.023315,411.803802 
	C601.655945,417.539917 615.105286,429.180023 623.369629,446.791626 
	C625.400085,451.118622 627.122742,455.590027 629.206848,460.295807 
	C629.967285,462.733154 630.507812,464.869720 631.048340,467.006317 
	C631.052002,470.378601 631.055664,473.750916 630.687378,477.533264 
	C623.071289,474.711121 623.974121,467.454041 622.469299,461.494507 
	C614.250916,461.879700 606.297119,466.666229 597.437805,460.860291 
	C595.907104,464.246826 593.532959,467.358612 593.189026,470.680603 
	C592.319763,479.077301 592.363281,487.568512 592.033325,496.489075 
	C592.028992,512.970520 592.032471,528.984802 592.035889,544.999023 
z"/>



<path fill="#4B4CC9" opacity="1.000000" stroke="none" 
	d="
M382.255310,365.950500 
	C382.186249,351.641266 381.643616,337.313263 382.209869,323.029205 
	C382.606323,313.027893 392.326111,302.985229 404.310913,303.712891 
	C415.441376,304.388641 424.478607,313.056122 424.570038,324.906708 
	C424.748474,348.040436 424.535706,371.177155 424.032410,394.675842 
	C423.394653,395.033752 423.209351,395.028503 423.012634,394.553345 
	C422.981995,388.731476 422.962708,383.379486 422.960144,377.557739 
	C422.981842,372.091644 423.182770,367.084015 422.894989,362.104645 
	C422.780273,360.119812 422.162415,357.271271 420.780396,356.410400 
	C415.423828,353.073608 410.193298,349.225037 403.335388,349.201752 
	C399.387482,349.188385 395.447540,348.311462 391.493591,348.203247 
	C387.286896,348.088104 384.239868,351.751801 383.931549,356.095490 
	C383.696716,359.403503 382.837006,362.667114 382.255310,365.950500 
z"/>



<path fill="#3754DB" opacity="1.000000" stroke="none" 
	d="
M421.014038,598.461914 
	C424.169250,598.046204 427.329712,598.192444 430.463196,597.965759 
	C434.454376,597.677002 437.809723,598.538818 440.891693,601.343384 
	C442.246063,602.575867 444.636200,603.193604 446.546875,603.174377 
	C449.805603,603.141785 450.590424,604.953003 449.661072,607.207520 
	C448.604340,609.771179 446.630371,611.956787 444.987488,614.407654 
	C444.637054,617.036194 445.010437,620.474609 443.678833,623.021667 
	C440.081818,629.901855 443.357361,634.648865 448.540070,637.658691 
	C453.098206,640.305786 456.639557,643.424927 459.708740,648.091431 
	C460.043121,648.764160 460.041962,649.057678 460.016174,649.351013 
	C457.101318,652.387146 454.186493,655.423218 450.738953,658.771851 
	C448.901917,660.517822 447.597595,661.951355 446.293335,663.384888 
	C446.293335,663.384888 446.195770,663.268616 445.968231,663.291260 
	C445.583557,663.658325 445.426453,664.002686 445.269348,664.347046 
	C445.269379,664.347046 445.362610,664.378845 445.034729,664.266602 
	C444.471893,664.108582 444.236969,664.062805 444.002045,664.017090 
	C440.294037,663.800476 437.300903,666.187805 432.801117,664.955505 
	C426.549988,663.243591 424.713257,659.127197 423.104950,654.506531 
	C419.267761,643.482361 417.843750,632.272766 420.760498,620.583740 
	C422.523041,613.520203 423.744934,606.125488 421.014038,598.461914 
z"/>


<path fill="#1B8CF7" opacity="1.000000" stroke="none" 
	d="
M342.105469,421.142853 
	C339.720306,423.117676 337.334076,425.071899 334.597839,427.312836 
	C330.443665,423.146027 324.611633,420.779755 317.932770,420.460938 
	C317.447662,420.437744 316.791779,419.936584 316.519104,420.116974 
	C310.783142,423.910980 302.931915,421.604370 297.611633,426.771118 
	C296.260864,428.082886 294.162109,428.624451 292.208862,428.869507 
	C296.312592,411.469452 305.235748,397.566833 318.007233,386.396790 
	C321.111694,395.270966 327.562988,399.268646 336.018250,400.209076 
	C343.131958,401.000244 351.502930,399.985657 355.872040,408.240356 
	C355.183258,409.080963 354.630432,409.695343 354.077606,410.309692 
	C353.269135,411.125549 352.460663,411.941376 351.120422,412.610199 
	C349.753174,413.329193 348.917725,414.195221 348.082245,415.061218 
	C348.082245,415.061218 348.031250,415.015167 347.717499,415.050262 
	C347.064453,415.532745 346.725159,415.980133 346.385864,416.427521 
	C346.385864,416.427521 346.205658,416.471558 345.990845,416.414001 
	C345.653687,416.694214 345.531342,417.032013 345.408966,417.369781 
	C345.408966,417.369781 345.197540,417.067535 344.986206,417.211853 
	C344.652496,417.693481 344.530090,418.030762 344.407715,418.368042 
	C344.407715,418.368042 344.276184,418.093475 344.023254,418.233093 
	C343.537415,418.925903 343.304443,419.479126 343.071472,420.032349 
	C343.071503,420.032349 343.027008,420.016541 342.801270,420.130371 
	C342.410736,420.525909 342.245911,420.807587 342.081116,421.089264 
	C342.081085,421.089264 342.104401,421.122284 342.105469,421.142853 
z"/>




<path fill="#4B52D0" opacity="1.000000" stroke="none" 
	d="
M382.166199,366.415100 
	C382.837006,362.667114 383.696716,359.403503 383.931549,356.095490 
	C384.239868,351.751801 387.286896,348.088104 391.493591,348.203247 
	C395.447540,348.311462 399.387482,349.188385 403.335388,349.201752 
	C410.193298,349.225037 415.423828,353.073608 420.780396,356.410400 
	C422.162415,357.271271 422.780273,360.119812 422.894989,362.104645 
	C423.182770,367.084015 422.981842,372.091644 422.541168,377.547852 
	C420.945740,377.982758 419.742920,378.150360 418.633240,377.901886 
	C410.663300,376.117065 402.720703,374.210144 394.752655,372.416656 
	C387.818390,370.855865 384.003265,373.792572 384.001770,380.586334 
	C384.000214,387.715668 384.002838,394.845032 384.003662,401.974365 
	C384.003662,401.974365 383.995453,401.997986 383.696350,402.302795 
	C383.280762,413.711212 383.164307,424.814850 383.047852,435.918488 
	C382.957458,447.337524 382.867065,458.756561 382.561401,470.505676 
	C382.229218,445.014984 382.095551,419.194275 382.004669,393.373413 
	C381.973602,384.542389 382.049866,375.710968 382.166199,366.415100 
z"/>



<path fill="#3489EC" opacity="1.000000" stroke="none" 
	d="
M631.340454,467.003113 
	C630.507812,464.869720 629.967285,462.733154 629.311523,460.038025 
	C629.453064,458.987488 629.709839,458.495514 630.267273,457.714294 
	C630.402954,452.329895 630.587891,447.194794 630.011780,442.146515 
	C627.676453,421.683868 618.930603,404.055786 604.727783,389.402618 
	C585.573730,369.641113 561.121948,362.441376 534.381348,362.096649 
	C507.753021,361.753387 481.116577,361.982697 454.484161,362.083557 
	C451.092224,362.096405 447.703125,362.849640 443.985382,363.299500 
	C443.985382,375.330933 444.192871,386.796051 443.883026,398.247162 
	C443.759460,402.814667 445.068726,404.103333 449.700287,404.121582 
	C483.452515,404.254547 517.203613,404.689484 550.954529,405.234985 
	C550.954041,405.440918 550.957336,405.852814 550.957336,405.852814 
	C550.688599,405.946716 550.458069,406.098633 550.128296,406.466675 
	C541.352844,406.291779 532.716187,405.713562 524.076904,405.671906 
	C498.597290,405.549164 473.116669,405.643097 447.636414,405.635590 
	C446.012054,405.635132 444.387756,405.492920 442.481079,405.403381 
	C442.481079,390.494476 442.481079,375.933472 442.481079,360.926453 
	C444.400116,360.841064 446.019836,360.707092 447.639648,360.706116 
	C477.783112,360.687958 507.933807,360.266022 538.068115,360.788208 
	C574.145264,361.413422 602.457092,376.568115 620.805542,408.237579 
	C628.416199,421.373596 632.439819,435.798767 632.780457,451.095123 
	C632.891602,456.088501 632.786560,461.086700 632.791504,466.554932 
	C632.412598,467.018097 632.022583,467.009003 631.340454,467.003113 
z"/>



<path fill="#3489EC" opacity="1.000000" stroke="none" 
	d="
M354.199829,410.442688 
	C354.630432,409.695343 355.183258,409.080963 356.246094,408.192871 
	C361.543213,406.742889 363.458374,404.181305 363.163696,398.811401 
	C362.590851,388.373352 363.074310,377.880341 362.909241,367.413422 
	C362.886536,365.976074 361.657379,364.557770 360.768219,363.199524 
	C360.277435,363.437134 360.090332,363.673340 359.591309,363.988312 
	C343.275543,367.253113 329.744781,374.971344 318.001373,386.031433 
	C305.235748,397.566833 296.312592,411.469452 291.999756,428.607574 
	C290.662292,436.063141 288.394287,443.103333 288.191284,450.202576 
	C287.649567,469.149719 287.995361,488.122284 287.818237,507.639343 
	C287.750916,508.454651 287.853760,508.715302 287.956604,508.975983 
	C287.971680,509.144623 287.986725,509.313232 288.032715,509.733765 
	C288.042755,513.023193 288.021851,516.060608 287.998413,519.553345 
	C287.727936,523.609985 287.460022,527.211304 287.159729,531.238831 
	C287.004120,527.193298 286.783508,522.721802 286.774170,518.249817 
	C286.728271,496.266693 286.351624,474.275208 286.817200,452.302063 
	C287.565247,417.001556 303.764771,390.414246 333.764740,372.114349 
	C343.074585,366.435333 353.088745,362.637573 364.822754,361.430634 
	C364.822754,369.786560 364.827667,377.726501 364.820435,385.666473 
	C364.817383,388.997223 364.791382,392.328033 364.770966,395.658752 
	C364.701599,406.973145 364.700775,406.973145 354.199829,410.442688 
z"/>


<path fill="#2C4ACE" opacity="1.000000" stroke="none" 
	d="
M546.773132,504.217926 
	C548.207947,500.170227 550.113770,496.032867 551.598206,491.749420 
	C556.032593,478.953949 555.880737,466.157745 547.452209,455.265503 
	C537.406799,442.283875 523.955933,435.872070 507.086670,440.007721 
	C486.788391,444.984039 474.007050,468.197205 481.004242,488.675446 
	C483.747681,496.704620 488.693817,504.002289 492.829132,511.527405 
	C495.681000,516.716919 497.529724,522.066895 497.031616,528.519470 
	C497.033203,528.976440 496.992889,529.005798 496.860352,528.954224 
	C496.727783,528.902588 496.444336,528.927734 496.444336,528.927734 
	C494.930237,519.046631 490.964325,510.381683 485.104584,502.170227 
	C466.934235,476.707397 481.790558,441.602570 512.124512,437.578674 
	C538.331482,434.102264 560.284973,457.904541 555.226135,485.106323 
	C553.999146,491.703278 549.854553,497.757629 546.773132,504.217926 
z"/>
<path fill="#2C4ACE" opacity="1.000000" stroke="none" 
	d="
M530.500000,624.066467 
	C532.243652,617.962830 534.384949,611.734741 536.263611,605.428345 
	C536.865417,603.408203 536.963867,601.181580 536.968140,599.048767 
	C537.015076,575.731628 536.781128,552.411255 537.107178,529.098572 
	C537.232971,520.099731 539.503540,511.439484 546.074951,504.367554 
	C539.664551,515.602417 537.978516,527.824219 538.298950,540.761536 
	C538.780640,560.211182 538.499146,579.680115 538.513184,599.140808 
	C538.519653,608.190918 536.300781,616.568359 530.500000,624.066467 
z"/>






















<path fill="#5759D7" opacity="1.000000" stroke="none" 
	d="
M592.474915,545.000122 
	C592.032471,528.984802 592.028992,512.970520 592.421204,496.482056 
	C596.099731,497.401459 599.673706,498.355988 602.596497,500.293030 
	C606.840759,503.105927 610.970520,505.273865 616.303833,505.162262 
	C618.439331,505.117523 622.142578,506.487457 622.491760,507.876984 
	C623.709717,512.723938 627.263245,513.268921 630.988953,514.054260 
	C630.988953,527.103943 630.988953,540.153625 630.988953,554.765015 
	C621.786377,552.161987 614.352600,549.941406 606.850830,547.981140 
	C602.259155,546.781311 597.563110,545.981018 592.474915,545.000122 
z"/>
<path fill="#4B52D0" opacity="1.000000" stroke="none" 
	d="
M631.007446,513.580261 
	C627.263245,513.268921 623.709717,512.723938 622.491760,507.876984 
	C622.142578,506.487457 618.439331,505.117523 616.303833,505.162262 
	C610.970520,505.273865 606.840759,503.105927 602.596497,500.293030 
	C599.673706,498.355988 596.099731,497.401459 592.428955,496.014832 
	C592.363281,487.568512 592.319763,479.077301 593.189026,470.680603 
	C593.532959,467.358612 595.907104,464.246826 597.437805,460.860291 
	C606.297119,466.666229 614.250916,461.879700 622.469299,461.494507 
	C623.974121,467.454041 623.071289,474.711121 630.665039,477.993561 
	C631.018433,489.731262 631.022217,501.418762 631.007446,513.580261 
z"/>

<path fill="#4558DC" opacity="1.000000" stroke="none" 
	d="
M423.012634,394.553345 
	C423.012939,398.376678 423.001862,401.730072 422.974976,405.541016 
	C419.624969,406.408813 417.168701,405.662231 416.343750,401.834351 
	C415.692688,398.813538 413.591125,397.683228 410.413269,397.947113 
	C404.146057,398.467621 397.831909,398.492737 391.587189,399.178375 
	C389.234772,399.436615 387.021057,400.958252 384.373901,401.939178 
	C384.002838,394.845032 384.000214,387.715668 384.001770,380.586334 
	C384.003265,373.792572 387.818390,370.855865 394.752655,372.416656 
	C402.720703,374.210144 410.663300,376.117065 418.633240,377.901886 
	C419.742920,378.150360 420.945740,377.982758 422.524414,378.017639 
	C422.962708,383.379486 422.981995,388.731476 423.012634,394.553345 
z"/>

<path fill="#1B8CF7" opacity="1.000000" stroke="none" 
	d="
M440.368103,517.889526 
	C442.892609,517.619507 444.989502,517.263733 447.093536,516.957153 
	C449.362488,516.626587 451.645294,516.044861 453.909393,516.099487 
	C458.533905,516.210754 463.155762,516.991333 467.767792,516.905945 
	C472.460754,516.819153 474.802368,519.130249 474.906769,523.330994 
	C475.158966,533.479919 474.935455,543.639771 475.048462,553.793579 
	C475.085205,557.095276 473.068329,557.032593 470.774017,557.026917 
	C460.286072,557.000793 449.752899,556.420654 439.324677,557.210510 
	C431.343719,557.815063 423.104584,559.138306 415.666992,561.955017 
	C398.641907,568.402771 379.167908,560.101868 370.762390,545.221558 
	C365.866821,536.554932 365.177551,527.838806 367.066620,518.490967 
	C367.762299,515.048401 368.892883,513.250549 373.114258,514.706787 
	C375.865814,515.655945 379.187500,514.901978 382.250397,515.008606 
	C390.532745,515.296753 398.811218,515.736389 407.095520,515.909668 
	C410.553925,515.982056 414.053406,515.138672 417.481445,515.401001 
	C424.986725,515.975464 432.458313,516.990356 440.368103,517.889526 
z"/>

<path fill="#1091F9" opacity="1.000000" stroke="none" 
	d="
M550.955017,405.029022 
	C517.203613,404.689484 483.452515,404.254547 449.700287,404.121582 
	C445.068726,404.103333 443.759460,402.814667 443.883026,398.247162 
	C444.192871,386.796051 443.985382,375.330933 443.985382,363.299500 
	C447.703125,362.849640 451.092224,362.096405 454.484161,362.083557 
	C481.116577,361.982697 507.753021,361.753387 534.381348,362.096649 
	C561.121948,362.441376 585.573730,369.641113 604.727783,389.402618 
	C618.930603,404.055786 627.676453,421.683868 630.011780,442.146515 
	C630.587891,447.194794 630.402954,452.329895 630.224548,457.349457 
	C629.225037,455.580322 628.544739,453.895691 627.916443,452.191925 
	C618.715820,427.241364 600.466248,412.974304 574.935486,407.297852 
	C574.178589,407.214630 573.421692,407.131409 572.226440,406.880859 
	C571.535278,406.814575 571.282532,406.915588 571.029724,407.016602 
	C569.266724,406.711914 567.503662,406.407227 565.229065,405.888824 
	C564.148560,405.808136 563.579712,405.941162 563.010803,406.074188 
	C560.272461,405.758514 557.534180,405.442841 554.012817,405.091003 
	C552.471558,405.046204 551.713257,405.037598 550.955017,405.029022 
z"/>
<path fill="#3754DB" opacity="1.000000" stroke="none" 
	d="
M575.025635,407.615540 
	C600.466248,412.974304 618.715820,427.241364 627.916443,452.191925 
	C628.544739,453.895691 629.225037,455.580322 629.923889,457.638672 
	C629.709839,458.495514 629.453064,458.987488 629.091614,459.737244 
	C627.122742,455.590027 625.400085,451.118622 623.369629,446.791626 
	C615.105286,429.180023 601.655945,417.539917 583.023315,411.803802 
	C580.252869,410.950928 577.745117,409.244659 575.025635,407.615540 
z"/>


<path fill="#1091F9" opacity="1.000000" stroke="none" 
	d="
M318.007233,386.396790 
	C329.744781,374.971344 343.275543,367.253113 359.801971,363.904449 
	C360.675354,363.645386 360.867706,363.419159 360.986786,363.130646 
	C361.657379,364.557770 362.886536,365.976074 362.909241,367.413422 
	C363.074310,377.880341 362.590851,388.373352 363.163696,398.811401 
	C363.458374,404.181305 361.543213,406.742889 356.382019,407.966614 
	C351.502930,399.985657 343.131958,401.000244 336.018250,400.209076 
	C327.562988,399.268646 321.111694,395.270966 318.007233,386.396790 
z"/>


</svg>